<svg width="278" height="77" viewBox="0 0 278 77" fill="none" xmlns="http://www.w3.org/2000/svg">
<rect width="278" height="77" fill="#E3E3EB"/>
<g clip-path="url(#clip0_5_6)">
<rect x="48" y="30" width="40" height="40" rx="7" fill="#1F0684"/>
<g style="mix-blend-mode:hard-light">
<path d="M76.4445 37.24H77.1945V36.49H76.4445V37.24ZM74.0685 59.092L74.5864 59.6345L74.5906 59.6304L74.0685 59.092ZM60.7485 59.092L60.2263 59.6305L60.2347 59.6384L60.7485 59.092ZM58.3725 37.24V36.49H57.6225V37.24H58.3725ZM59.3805 37.24H60.1305V36.49H59.3805V37.24ZM61.4685 58.372L60.9336 58.8979L60.9427 58.9068L61.4685 58.372ZM73.3485 58.372L73.8789 58.9023L73.8833 58.8978L73.3485 58.372ZM75.4365 37.24V36.49H74.6865V37.24H75.4365ZM75.6945 37.24V52.468H77.1945V37.24H75.6945ZM75.6945 52.468C75.6945 55.2099 74.944 57.1983 73.5464 58.5536L74.5906 59.6304C76.361 57.9137 77.1945 55.4861 77.1945 52.468H75.6945ZM73.5506 58.5495C72.1446 59.8916 70.1323 60.61 67.4085 60.61V62.11C70.3967 62.11 72.8244 61.3164 74.5864 59.6345L73.5506 58.5495ZM67.4085 60.61C64.7114 60.61 62.6951 59.8929 61.2623 58.5456L60.2347 59.6384C62.0179 61.3151 64.4416 62.11 67.4085 62.11V60.61ZM61.2706 58.5536C59.873 57.1983 59.1225 55.2099 59.1225 52.468H57.6225C57.6225 55.4861 58.456 57.9137 60.2264 59.6304L61.2706 58.5536ZM59.1225 52.468V37.24H57.6225V52.468H59.1225ZM58.3725 37.99H59.3805V36.49H58.3725V37.99ZM58.6305 37.24V52.324H60.1305V37.24H58.6305ZM58.6305 52.324C58.6305 55.0721 59.3643 57.3013 60.9337 58.8978L62.0033 57.8462C60.7887 56.6107 60.1305 54.8079 60.1305 52.324H58.6305ZM60.9427 58.9068C62.5354 60.4725 64.7256 61.21 67.4085 61.21V59.71C65.0034 59.71 63.2336 59.0555 61.9943 57.8372L60.9427 58.9068ZM67.4085 61.21C70.1124 61.21 72.3071 60.474 73.8788 58.9023L72.8182 57.8417C71.6059 59.054 69.8406 59.71 67.4085 59.71V61.21ZM73.8833 58.8978C75.4527 57.3013 76.1865 55.0721 76.1865 52.324H74.6865C74.6865 54.8079 74.0283 56.6107 72.8137 57.8462L73.8833 58.8978ZM76.1865 52.324V37.24H74.6865V52.324H76.1865ZM75.4365 37.99H76.4445V36.49H75.4365V37.99Z" fill="#D9D9E9"/>
</g>
<g filter="url(#filter0_i_5_6)">
<path d="M72.2029 39.44V50H71.9469V40.72L71.9629 39.808L67.6589 50H67.3389L63.0349 39.808L63.0509 40.72V50H62.7949V39.44H63.1309L67.3069 49.232L67.4989 49.696L67.6909 49.248L71.8669 39.44H72.2029Z" fill="#FBF1F1"/>
</g>
<path d="M72.2029 39.44H72.9029V38.74H72.2029V39.44ZM72.2029 50V50.7H72.9029V50H72.2029ZM71.9469 50H71.2469V50.7H71.9469V50ZM71.9469 40.72L71.2469 40.7077V40.72H71.9469ZM71.9629 39.808L72.6628 39.8203L71.3181 39.5357L71.9629 39.808ZM67.6589 50V50.7H68.1232L68.3038 50.2723L67.6589 50ZM67.3389 50L66.6941 50.2723L66.8747 50.7H67.3389V50ZM63.0349 39.808L63.6798 39.5357L62.335 39.8203L63.0349 39.808ZM63.0509 40.72H63.751L63.7508 40.7077L63.0509 40.72ZM63.0509 50V50.7H63.7509V50H63.0509ZM62.7949 50H62.0949V50.7H62.7949V50ZM62.7949 39.44V38.74H62.0949V39.44H62.7949ZM63.1309 39.44L63.7748 39.1654L63.5934 38.74H63.1309V39.44ZM67.3069 49.232L67.9538 48.9643L67.9508 48.9574L67.3069 49.232ZM67.4989 49.696L66.8521 49.9636L67.4876 51.4994L68.1423 49.9717L67.4989 49.696ZM67.6909 49.248L68.3343 49.5237L68.335 49.5222L67.6909 49.248ZM71.8669 39.44V38.74H71.4042L71.2229 39.1658L71.8669 39.44ZM71.5029 39.44V50H72.9029V39.44H71.5029ZM72.2029 49.3H71.9469V50.7H72.2029V49.3ZM72.6469 50V40.72H71.2469V50H72.6469ZM72.6468 40.7323L72.6628 39.8203L71.263 39.7957L71.247 40.7077L72.6468 40.7323ZM71.3181 39.5357L67.0141 49.7277L68.3038 50.2723L72.6078 40.0803L71.3181 39.5357ZM67.6589 49.3H67.3389V50.7H67.6589V49.3ZM67.9838 49.7277L63.6798 39.5357L62.3901 40.0803L66.6941 50.2723L67.9838 49.7277ZM62.335 39.8203L62.351 40.7323L63.7508 40.7077L63.7348 39.7957L62.335 39.8203ZM62.3509 40.72V50H63.7509V40.72H62.3509ZM63.0509 49.3H62.7949V50.7H63.0509V49.3ZM63.4949 50V39.44H62.0949V50H63.4949ZM62.7949 40.14H63.1309V38.74H62.7949V40.14ZM62.487 39.7146L66.663 49.5066L67.9508 48.9574L63.7748 39.1654L62.487 39.7146ZM66.6601 49.4996L66.8521 49.9636L68.1458 49.4284L67.9537 48.9644L66.6601 49.4996ZM68.1423 49.9717L68.3343 49.5237L67.0475 48.9723L66.8555 49.4203L68.1423 49.9717ZM68.335 49.5222L72.511 39.7142L71.2229 39.1658L67.0469 48.9738L68.335 49.5222ZM71.8669 40.14H72.2029V38.74H71.8669V40.14Z" fill="#D9D9E9"/>
</g>
<path d="M98.0927 43.8C99.0394 43.8 99.8527 43.9667 100.533 44.3C101.226 44.6333 101.766 45.1067 102.153 45.72C102.539 46.3333 102.733 47.0733 102.733 47.94C102.733 48.7933 102.539 49.5333 102.153 50.16C101.766 50.7733 101.226 51.2467 100.533 51.58C99.8527 51.9133 99.0394 52.08 98.0927 52.08H95.1527V57H93.0127V43.8H98.0927ZM97.7527 50.24C98.6994 50.24 99.3927 50.0467 99.8327 49.66C100.286 49.26 100.513 48.6867 100.513 47.94C100.513 47.18 100.286 46.6067 99.8327 46.22C99.3927 45.82 98.6994 45.62 97.7527 45.62H95.1527V50.24H97.7527ZM113.438 57H111.178L109.918 53.54H104.378L103.118 57H100.918L105.898 43.8H108.458L113.438 57ZM104.978 51.8H109.318L107.158 45.64L104.978 51.8ZM121.841 43.8V45.64H117.321V57H115.181V45.64H110.661V43.8H121.841ZM133.223 43.8V57H131.063V43.8H133.223ZM124.543 43.8V57H122.403V43.8H124.543ZM132.143 49.4V51.24H123.483V49.4H132.143ZM137.27 43.8V57H135.13V43.8H137.27ZM143.685 43.6C144.871 43.6 145.898 43.8267 146.765 44.28C147.631 44.72 148.365 45.3733 148.965 46.24L147.525 47.62C147.018 46.8467 146.445 46.2933 145.805 45.96C145.178 45.6133 144.431 45.44 143.565 45.44C142.925 45.44 142.398 45.5267 141.985 45.7C141.571 45.8733 141.265 46.1067 141.065 46.4C140.878 46.68 140.785 47 140.785 47.36C140.785 47.7733 140.925 48.1333 141.205 48.44C141.498 48.7467 142.038 48.9867 142.825 49.16L145.505 49.76C146.785 50.04 147.691 50.4667 148.225 51.04C148.758 51.6133 149.025 52.34 149.025 53.22C149.025 54.0333 148.805 54.74 148.365 55.34C147.925 55.94 147.311 56.4 146.525 56.72C145.751 57.04 144.838 57.2 143.785 57.2C142.851 57.2 142.011 57.08 141.265 56.84C140.518 56.6 139.865 56.2733 139.305 55.86C138.745 55.4467 138.285 54.9733 137.925 54.44L139.405 52.96C139.685 53.4267 140.038 53.8467 140.465 54.22C140.891 54.58 141.385 54.86 141.945 55.06C142.518 55.26 143.151 55.36 143.845 55.36C144.458 55.36 144.985 55.2867 145.425 55.14C145.878 54.9933 146.218 54.78 146.445 54.5C146.685 54.2067 146.805 53.86 146.805 53.46C146.805 53.0733 146.671 52.7333 146.405 52.44C146.151 52.1467 145.671 51.92 144.965 51.76L142.065 51.1C141.265 50.9267 140.605 50.68 140.085 50.36C139.565 50.04 139.178 49.6533 138.925 49.2C138.671 48.7333 138.545 48.2133 138.545 47.64C138.545 46.8933 138.745 46.22 139.145 45.62C139.558 45.0067 140.151 44.52 140.925 44.16C141.698 43.7867 142.618 43.6 143.685 43.6ZM154.521 57V43.8H164.081V45.64H156.661V49.44H162.461V51.24H156.661V55.16H164.361V57H154.521ZM176.055 43.8V57H173.515L168.415 48.68L167.135 46.34H167.115L167.195 48.48V57H165.235V43.8H167.755L172.835 52.1L174.135 54.48H174.155L174.075 52.32V43.8H176.055ZM187.782 43.8V45.64H183.262V57H181.122V45.64H176.602V43.8H187.782ZM188.345 57V43.8H197.905V45.64H190.485V49.44H196.285V51.24H190.485V55.16H198.185V57H188.345ZM204.44 43.8C205.853 43.8 206.973 44.1533 207.8 44.86C208.64 45.5667 209.06 46.52 209.06 47.72C209.06 48.96 208.64 49.92 207.8 50.6C206.973 51.2667 205.853 51.6 204.44 51.6L204.24 51.72H201.18V57H199.06V43.8H204.44ZM204.28 49.94C205.146 49.94 205.786 49.7667 206.2 49.42C206.626 49.06 206.84 48.5133 206.84 47.78C206.84 47.06 206.626 46.52 206.2 46.16C205.786 45.8 205.146 45.62 204.28 45.62H201.18V49.94H204.28ZM205.54 50.38L209.84 57H207.38L203.7 51.22L205.54 50.38ZM215.577 43.8C216.524 43.8 217.337 43.9667 218.017 44.3C218.71 44.6333 219.25 45.1067 219.637 45.72C220.024 46.3333 220.217 47.0733 220.217 47.94C220.217 48.7933 220.024 49.5333 219.637 50.16C219.25 50.7733 218.71 51.2467 218.017 51.58C217.337 51.9133 216.524 52.08 215.577 52.08H212.637V57H210.497V43.8H215.577ZM215.237 50.24C216.184 50.24 216.877 50.0467 217.317 49.66C217.77 49.26 217.997 48.6867 217.997 47.94C217.997 47.18 217.77 46.6067 217.317 46.22C216.877 45.82 216.184 45.62 215.237 45.62H212.637V50.24H215.237ZM226.416 43.8C227.83 43.8 228.95 44.1533 229.776 44.86C230.616 45.5667 231.036 46.52 231.036 47.72C231.036 48.96 230.616 49.92 229.776 50.6C228.95 51.2667 227.83 51.6 226.416 51.6L226.216 51.72H223.156V57H221.036V43.8H226.416ZM226.256 49.94C227.123 49.94 227.763 49.7667 228.176 49.42C228.603 49.06 228.816 48.5133 228.816 47.78C228.816 47.06 228.603 46.52 228.176 46.16C227.763 45.8 227.123 45.62 226.256 45.62H223.156V49.94H226.256ZM227.516 50.38L231.816 57H229.356L225.676 51.22L227.516 50.38ZM234.614 43.8V57H232.474V43.8H234.614ZM241.028 43.6C242.215 43.6 243.242 43.8267 244.108 44.28C244.975 44.72 245.708 45.3733 246.308 46.24L244.868 47.62C244.362 46.8467 243.788 46.2933 243.148 45.96C242.522 45.6133 241.775 45.44 240.908 45.44C240.268 45.44 239.742 45.5267 239.328 45.7C238.915 45.8733 238.608 46.1067 238.408 46.4C238.222 46.68 238.128 47 238.128 47.36C238.128 47.7733 238.268 48.1333 238.548 48.44C238.842 48.7467 239.382 48.9867 240.168 49.16L242.848 49.76C244.128 50.04 245.035 50.4667 245.568 51.04C246.102 51.6133 246.368 52.34 246.368 53.22C246.368 54.0333 246.148 54.74 245.708 55.34C245.268 55.94 244.655 56.4 243.868 56.72C243.095 57.04 242.182 57.2 241.128 57.2C240.195 57.2 239.355 57.08 238.608 56.84C237.862 56.6 237.208 56.2733 236.648 55.86C236.088 55.4467 235.628 54.9733 235.268 54.44L236.748 52.96C237.028 53.4267 237.382 53.8467 237.808 54.22C238.235 54.58 238.728 54.86 239.288 55.06C239.862 55.26 240.495 55.36 241.188 55.36C241.802 55.36 242.328 55.2867 242.768 55.14C243.222 54.9933 243.562 54.78 243.788 54.5C244.028 54.2067 244.148 53.86 244.148 53.46C244.148 53.0733 244.015 52.7333 243.748 52.44C243.495 52.1467 243.015 51.92 242.308 51.76L239.408 51.1C238.608 50.9267 237.948 50.68 237.428 50.36C236.908 50.04 236.522 49.6533 236.268 49.2C236.015 48.7333 235.888 48.2133 235.888 47.64C235.888 46.8933 236.088 46.22 236.488 45.62C236.902 45.0067 237.495 44.52 238.268 44.16C239.042 43.7867 239.962 43.6 241.028 43.6ZM247.36 57V43.8H256.92V45.64H249.5V49.44H255.3V51.24H249.5V55.16H257.2V57H247.36ZM262.575 43.6C263.762 43.6 264.789 43.8267 265.655 44.28C266.522 44.72 267.255 45.3733 267.855 46.24L266.415 47.62C265.909 46.8467 265.335 46.2933 264.695 45.96C264.069 45.6133 263.322 45.44 262.455 45.44C261.815 45.44 261.289 45.5267 260.875 45.7C260.462 45.8733 260.155 46.1067 259.955 46.4C259.769 46.68 259.675 47 259.675 47.36C259.675 47.7733 259.815 48.1333 260.095 48.44C260.389 48.7467 260.929 48.9867 261.715 49.16L264.395 49.76C265.675 50.04 266.582 50.4667 267.115 51.04C267.649 51.6133 267.915 52.34 267.915 53.22C267.915 54.0333 267.695 54.74 267.255 55.34C266.815 55.94 266.202 56.4 265.415 56.72C264.642 57.04 263.729 57.2 262.675 57.2C261.742 57.2 260.902 57.08 260.155 56.84C259.409 56.6 258.755 56.2733 258.195 55.86C257.635 55.4467 257.175 54.9733 256.815 54.44L258.295 52.96C258.575 53.4267 258.929 53.8467 259.355 54.22C259.782 54.58 260.275 54.86 260.835 55.06C261.409 55.26 262.042 55.36 262.735 55.36C263.349 55.36 263.875 55.2867 264.315 55.14C264.769 54.9933 265.109 54.78 265.335 54.5C265.575 54.2067 265.695 53.86 265.695 53.46C265.695 53.0733 265.562 52.7333 265.295 52.44C265.042 52.1467 264.562 51.92 263.855 51.76L260.955 51.1C260.155 50.9267 259.495 50.68 258.975 50.36C258.455 50.04 258.069 49.6533 257.815 49.2C257.562 48.7333 257.435 48.2133 257.435 47.64C257.435 46.8933 257.635 46.22 258.035 45.62C258.449 45.0067 259.042 44.52 259.815 44.16C260.589 43.7867 261.509 43.6 262.575 43.6Z" fill="#1F0684"/>
<defs>
<filter id="filter0_i_5_6" x="62.7949" y="39.44" width="9.408" height="14.56" filterUnits="userSpaceOnUse" color-interpolation-filters="sRGB">
<feFlood flood-opacity="0" result="BackgroundImageFix"/>
<feBlend mode="normal" in="SourceGraphic" in2="BackgroundImageFix" result="shape"/>
<feColorMatrix in="SourceAlpha" type="matrix" values="0 0 0 0 0 0 0 0 0 0 0 0 0 0 0 0 0 0 127 0" result="hardAlpha"/>
<feOffset dy="4"/>
<feGaussianBlur stdDeviation="2"/>
<feComposite in2="hardAlpha" operator="arithmetic" k2="-1" k3="1"/>
<feColorMatrix type="matrix" values="0 0 0 0 0 0 0 0 0 0 0 0 0 0 0 0 0 0 0.25 0"/>
<feBlend mode="normal" in2="shape" result="effect1_innerShadow_5_6"/>
</filter>
<clipPath id="clip0_5_6">
<rect x="48" y="30" width="40" height="40" rx="7" fill="white"/>
</clipPath>
</defs>
</svg>
